<svg xmlns="http://www.w3.org/2000/svg" viewBox="0 0 256 256" fill="none">
  <defs>
    <radialGradient id="pulse" cx="50%" cy="40%" r="70%">
      <stop offset="0%" stop-color="#38bdf8" stop-opacity="0.95" />
      <stop offset="55%" stop-color="#8b5cf6" stop-opacity="0.8" />
      <stop offset="100%" stop-color="#0f172a" stop-opacity="0" />
    </radialGradient>
  </defs>
  <rect width="256" height="256" rx="64" fill="#04070d" />
  <circle cx="128" cy="120" r="108" fill="url(#pulse)" />
  <path d="M64 144c24-40 48-60 64-60s40 20 64 60" stroke="#fbbf24" stroke-width="12" stroke-linecap="round" stroke-linejoin="round" opacity="0.9" />
  <path d="M96 152c12-20 24-30 32-30s20 10 32 30" stroke="#22c55e" stroke-width="10" stroke-linecap="round" stroke-linejoin="round" opacity="0.8" />
  <circle cx="128" cy="120" r="28" fill="#38bdf8" opacity="0.85" />
  <path d="M128 86c-10 0-18 8-18 18s8 18 18 18 18-8 18-18-8-18-18-18zm0 10c4.4 0 8 3.6 8 8s-3.6 8-8 8-8-3.6-8-8 3.6-8 8-8z" fill="#f8fafc" opacity="0.95" />
</svg>
